<?xml version="1.0" encoding="UTF-8"?>
<svg id="Capa_2" data-name="Capa 2" xmlns="http://www.w3.org/2000/svg" viewBox="0 0 184.08 180.92">
  <defs>
    <style>
      .cls-1 {
        fill: #8435c4;
      }
    </style>
  </defs>
  <g id="Capa_1-2" data-name="Capa 1">
    <g>
      <path class="cls-1" d="M50.67,180.92c-21.41,0-46.67-16-50.25-40.34-1.57-10.67,1.32-22.12,8.12-32.25.33-.49.7-.96,1.11-1.39l20.1-21.1c4-4.2,10.65-4.36,14.85-.36,4.2,4,4.36,10.65.36,14.85l-19.45,20.4c-2.25,3.53-5.34,9.86-4.32,16.78,1.97,13.41,18.05,23.02,30.58,22.36,7.94-.42,14.13-6.35,30.85-23.42,15.1-15.41,22.96-23.95,22.54-34.45-.24-5.93-2.92-11.88-7.98-17.7-3.81-4.37-3.35-11.01,1.03-14.81,4.37-3.81,11.01-3.35,14.81,1.03,8.16,9.38,12.7,19.97,13.12,30.64.8,20.05-12.14,33.26-28.52,49.98-18.2,18.58-28.22,28.81-44.73,29.69-.74.04-1.48.06-2.23.06Z"/>
      <path class="cls-1" d="M78.98,113.98c-2.93,0-5.85-1.22-7.92-3.61-8.16-9.38-12.7-19.97-13.12-30.64-.8-20.05,12.14-33.26,28.52-49.98C104.66,11.17,114.68.94,131.18.06c21.85-1.17,48.78,15.09,52.48,40.28,1.57,10.67-1.32,22.12-8.12,32.25-.33.49-.7.96-1.11,1.39l-20.1,21.1c-4,4.2-10.65,4.36-14.84.36-4.2-4-4.36-10.65-.36-14.84l19.45-20.4c2.25-3.53,5.34-9.86,4.32-16.78-1.97-13.41-18.07-23.03-30.58-22.36-7.94.42-14.12,6.35-30.84,23.41-15.1,15.42-22.96,23.95-22.54,34.45.24,5.93,2.92,11.88,7.98,17.69,3.81,4.37,3.35,11.01-1.03,14.81-1.99,1.73-4.44,2.58-6.89,2.58Z"/>
    </g>
  </g>
</svg>